<svg xmlns="http://www.w3.org/2000/svg" xmlns:xlink="http://www.w3.org/1999/xlink" version="1.1" x="0px" y="0px" viewBox="0 0 32 32" enable-background="new 0 0 32 32" xml:space="preserve"><g><path d="M29.2421875,13.0297852l-1.7451172-0.4365234c-0.2373047-0.8017578-0.5585938-1.5756836-0.9599609-2.3125   l0.9267578-1.5444336c0.2363281-0.3935547,0.1738281-0.8974609-0.1503906-1.2216797l-2.828125-2.828125   c-0.3242188-0.3251953-0.828125-0.3867188-1.2216797-0.1503906l-1.5439453,0.9267578   c-0.7373047-0.4008789-1.5107422-0.722168-2.3134766-0.9594727l-0.4365234-1.7460938C18.8583984,2.3125,18.4589844,2,18,2h-4   c-0.4589844,0-0.8583984,0.3125-0.9697266,0.7573242L12.59375,4.503418   c-0.8017578,0.2373047-1.5761719,0.5585938-2.3134766,0.9594727L8.7363281,4.5361328   C8.3427734,4.300293,7.8388672,4.3618164,7.5146484,4.6865234l-2.828125,2.828125   c-0.3242188,0.3242188-0.3867188,0.828125-0.1503906,1.2216797l0.9267578,1.5444336   c-0.4013672,0.7368164-0.7226563,1.5107422-0.9599609,2.3125l-1.7451172,0.4365234C2.3125,13.1411133,2,13.5410156,2,14v4   c0,0.4589844,0.3125,0.8588867,0.7578125,0.9702148l1.7451172,0.4365234c0.2373047,0.8017578,0.5585938,1.5756836,0.9599609,2.3125   l-0.9267578,1.5444336c-0.2363281,0.3935547-0.1738281,0.8974609,0.1503906,1.2216797l2.828125,2.828125   c0.3232422,0.3242188,0.828125,0.3847656,1.2216797,0.1503906l1.5439453-0.9267578   c0.7373047,0.4008789,1.5117188,0.722168,2.3134766,0.9594727l0.4365234,1.7460938C13.1416016,29.6875,13.5410156,30,14,30h4   c0.4589844,0,0.8583984-0.3125,0.9697266-0.7573242L19.40625,27.496582   c0.8027344-0.2373047,1.5761719-0.5585938,2.3134766-0.9594727l1.5439453,0.9267578   c0.3935547,0.2348633,0.8974609,0.1748047,1.2216797-0.1503906l2.828125-2.828125   c0.3242188-0.3242188,0.3867188-0.828125,0.1503906-1.2216797l-0.9267578-1.5444336   c0.4013672-0.7368164,0.7226563-1.5107422,0.9599609-2.3125l1.7451172-0.4365234C29.6875,18.8588867,30,18.4589844,30,18v-4   C30,13.5410156,29.6875,13.1411133,29.2421875,13.0297852z M28,17.2192383l-1.5585938,0.3896484   c-0.3613281,0.090332-0.6425781,0.3740234-0.7304688,0.7363281c-0.2421875,1.0087891-0.6416016,1.9716797-1.1865234,2.8613281   c-0.1943359,0.3178711-0.1962891,0.7172852-0.0048828,1.0371094l0.828125,1.3793945l-1.7246094,1.7241211l-1.3789063-0.8276367   c-0.3203125-0.1923828-0.7207031-0.1899414-1.0371094,0.0043945c-0.8896484,0.5449219-1.8525391,0.9443359-2.8623047,1.1875   c-0.3623047,0.0874023-0.6455078,0.3681641-0.7353516,0.7294922L17.21875,28h-2.4375l-0.390625-1.559082   c-0.0898438-0.3613281-0.3730469-0.6420898-0.7353516-0.7294922c-1.0097656-0.2431641-1.9726563-0.6425781-2.8623047-1.1875   c-0.3173828-0.1943359-0.7177734-0.1962891-1.0371094-0.0043945L8.3769531,25.347168l-1.7246094-1.7241211l0.828125-1.3793945   c0.1914063-0.3198242,0.1894531-0.7192383-0.0048828-1.0371094c-0.5449219-0.8896484-0.9443359-1.8525391-1.1865234-2.8613281   c-0.0878906-0.3623047-0.3691406-0.6459961-0.7304688-0.7363281L4,17.2192383v-2.4384766l1.5585938-0.3896484   c0.3613281-0.090332,0.6425781-0.3740234,0.7304688-0.7363281c0.2421875-1.0087891,0.6416016-1.9716797,1.1865234-2.8613281   c0.1943359-0.3178711,0.1962891-0.7172852,0.0048828-1.0371094l-0.828125-1.3793945L8.3769531,6.652832l1.3789063,0.8276367   c0.3183594,0.190918,0.7197266,0.1904297,1.0371094-0.0043945c0.8896484-0.5449219,1.8525391-0.9443359,2.8623047-1.1875   c0.3623047-0.0874023,0.6455078-0.3681641,0.7353516-0.7294922L14.78125,4h2.4375l0.390625,1.559082   c0.0898438,0.3613281,0.3730469,0.6420898,0.7353516,0.7294922c1.0097656,0.2431641,1.9726563,0.6425781,2.8623047,1.1875   c0.3173828,0.1948242,0.7177734,0.1958008,1.0371094,0.0043945l1.3789063-0.8276367l1.7246094,1.7241211l-0.828125,1.3793945   c-0.1914063,0.3198242-0.1894531,0.7192383,0.0048828,1.0371094c0.5449219,0.8896484,0.9443359,1.8525391,1.1865234,2.8613281   c0.0878906,0.3623047,0.3691406,0.6459961,0.7304688,0.7363281L28,14.7807617V17.2192383z"></path><path d="M16,13c0.5517578,0,1,0.4487305,1,1c0,0.5522461,0.4472656,1,1,1s1-0.4477539,1-1   c0-1.3019409-0.838501-2.4016113-2-2.8157349V11c0-0.5522461-0.4472656-1-1-1s-1,0.4477539-1,1v0.1842651   C13.838501,11.5983887,13,12.6980591,13,14c0,1.6542969,1.3457031,3,3,3c0.5517578,0,1,0.4487305,1,1s-0.4482422,1-1,1   s-1-0.4487305-1-1c0-0.5522461-0.4472656-1-1-1s-1,0.4477539-1,1c0,1.3019409,0.838501,2.4015503,2,2.8156738V21   c0,0.5522461,0.4472656,1,1,1s1-0.4477539,1-1v-0.1842651C18.161499,20.4016113,19,19.3019409,19,18c0-1.6542969-1.3457031-3-3-3   c-0.5517578,0-1-0.4487305-1-1S15.4482422,13,16,13z"></path><path d="M16,7c-4.9628906,0-9,4.0375977-9,9s4.0371094,9,9,9s9-4.0375977,9-9S20.9628906,7,16,7z M16,23   c-3.859375,0-7-3.1401367-7-7s3.140625-7,7-7s7,3.1401367,7,7S19.859375,23,16,23z"></path></g></svg>