<?xml version="1.0" encoding="UTF-8"?>
<svg width="100pt" height="100pt" version="1.1" viewBox="0 0 100 100" xmlns="http://www.w3.org/2000/svg">
 <path d="m35.828 62.047c-0.86328 0-1.5625-0.70312-1.5625-1.5625 0-3.2812-4.3359-6.5508-6.7227-7.9766-2.3867 1.4297-6.7266 4.7109-6.7266 7.9766h-0.003906c0 0.85938-0.69922 1.5625-1.5625 1.5625-0.85938 0-1.5625-0.70312-1.5625-1.5625 0-6.2695 8.75-10.961 9.1172-11.156h0.003906c0.45703-0.24219 1.0039-0.24219 1.4609 0 0.37109 0.19531 9.1172 4.8828 9.1172 11.156 0 0.85938-0.69922 1.5625-1.5586 1.5625z"/>
 <path d="m27.539 52.48c-0.25391 0-0.50391-0.0625-0.73047-0.18359-0.37109-0.19531-9.1172-4.8828-9.1172-11.152s8.75-10.961 9.1172-11.156v0.003907c0.45703-0.24219 1.0039-0.24219 1.4609 0 0.37109 0.19531 9.1172 4.8828 9.1172 11.156 0 6.2734-8.75 10.957-9.1172 11.152-0.22656 0.11719-0.47656 0.17969-0.73047 0.17969zm0-19.312c-2.3867 1.4297-6.7266 4.7109-6.7266 7.9766 0 3.2695 4.3359 6.5508 6.7227 7.9766 2.3867-1.4297 6.7266-4.7109 6.7266-7.9766s-4.3359-6.5508-6.7227-7.9766z"/>
 <path d="m27.539 33.145c-0.25391 0-0.50391-0.0625-0.73047-0.18359-0.37109-0.19531-9.1172-4.8828-9.1172-11.152h-0.003906c0-0.85938 0.70312-1.5625 1.5625-1.5625 0.86328 0 1.5625 0.70312 1.5625 1.5625 0 3.2812 4.3359 6.5508 6.7227 7.9766 2.3867-1.4297 6.7266-4.7109 6.7266-7.9766h0.003906c0-0.85938 0.69922-1.5625 1.5625-1.5625 0.85938 0 1.5625 0.70312 1.5625 1.5625 0 6.2656-8.75 10.957-9.1172 11.152h-0.003907c-0.22656 0.12109-0.47656 0.18359-0.73047 0.18359z"/>
 <path d="m30.34 40.395h-5.6016c-0.86328 0-1.5625-0.69922-1.5625-1.5625s0.69922-1.5625 1.5625-1.5625h5.6016c0.86328 0 1.5625 0.69922 1.5625 1.5625s-0.69922 1.5625-1.5625 1.5625z"/>
 <path d="m30.34 44.633h-5.6016c-0.86328 0-1.5625-0.70312-1.5625-1.5625 0-0.86328 0.69922-1.5625 1.5625-1.5625h5.6016c0.86328 0 1.5625 0.69922 1.5625 1.5625 0 0.85938-0.69922 1.5625-1.5625 1.5625z"/>
 <path d="m30.34 24.875h-5.6016c-0.86328 0-1.5625-0.69922-1.5625-1.5625s0.69922-1.5625 1.5625-1.5625h5.6016c0.86328 0 1.5625 0.69922 1.5625 1.5625s-0.69922 1.5625-1.5625 1.5625z"/>
 <path d="m30.34 60.465h-5.6016c-0.86328 0-1.5625-0.69922-1.5625-1.5625 0-0.85938 0.69922-1.5625 1.5625-1.5625h5.6016c0.86328 0 1.5625 0.70312 1.5625 1.5625 0 0.86328-0.69922 1.5625-1.5625 1.5625z"/>
 <path d="m89.336 74.906h-78.672c-3.9453-0.003906-7.1445-3.1992-7.1484-7.1484v-53.227c0.003906-3.9453 3.2031-7.1445 7.1484-7.1445l78.672-0.003907c3.9453 0.003907 7.1445 3.2031 7.1484 7.1484v53.227c-0.003906 3.9492-3.2031 7.1445-7.1484 7.1484zm-78.672-64.398c-2.2188 0.003907-4.0195 1.8047-4.0234 4.0234v53.227c0.003906 2.2227 1.8008 4.0234 4.0234 4.0234h78.672c2.2227 0 4.0195-1.8008 4.0234-4.0234v-53.227c-0.003906-2.2188-1.8047-4.0195-4.0234-4.0195z"/>
 <path d="m88.086 68.07h-76.172c-0.86328 0-1.5625-0.69922-1.5625-1.5625v-50.727c0-0.85938 0.69922-1.5625 1.5625-1.5625h76.172c0.41406 0 0.8125 0.16797 1.1055 0.46094 0.29297 0.29297 0.45703 0.6875 0.45703 1.1016v50.727c0 0.41797-0.16406 0.8125-0.45703 1.1055-0.29297 0.29297-0.69141 0.45703-1.1055 0.45703zm-74.609-3.125h73.047v-47.602h-73.047z"/>
 <path d="m61.055 84.125c-0.85938 0-1.5625-0.69922-1.5625-1.5625v-7.6562h-18.984v7.6562c0 0.86328-0.69922 1.5625-1.5625 1.5625-0.86328 0-1.5625-0.69922-1.5625-1.5625v-9.2188c0-0.85938 0.69922-1.5625 1.5625-1.5625h22.109c0.41797 0 0.8125 0.16797 1.1055 0.46094 0.29297 0.29297 0.45703 0.6875 0.45703 1.1016v9.2188c0 0.41406-0.16406 0.8125-0.45703 1.1055-0.29297 0.29297-0.6875 0.45703-1.1055 0.45703z"/>
 <path d="m64.18 92.617h-28.359c-3.2773-0.003907-5.9336-2.6602-5.9375-5.9375v-4.1172c0-0.86328 0.69922-1.5625 1.5625-1.5625h7.5c0.86328 0 1.5625 0.69922 1.5625 1.5625s-0.69922 1.5625-1.5625 1.5625h-5.9375v2.5547c0 1.5508 1.2578 2.8086 2.8125 2.8125h28.359c1.5508 0 2.8125-1.2617 2.8125-2.8125v-2.5547h-5.9375c-0.85938 0-1.5625-0.69922-1.5625-1.5625s0.70312-1.5625 1.5625-1.5625h7.5c0.41406 0 0.8125 0.16406 1.1055 0.45703 0.29297 0.29297 0.45703 0.69141 0.45703 1.1055v4.1172c-0.003907 3.2773-2.6602 5.9336-5.9375 5.9375z"/>
 <path d="m61.117 57.445c-0.86328 0-1.5625-0.70312-1.5625-1.5625v-9.9609c0-0.86328 0.69922-1.5625 1.5625-1.5625 0.85937 0 1.5625 0.69922 1.5625 1.5625v9.9609c0 0.41406-0.16797 0.80859-0.46094 1.1016s-0.6875 0.46094-1.1016 0.46094z"/>
 <path d="m66.102 52.461h-9.9609c-0.86328 0-1.5625-0.69922-1.5625-1.5625 0-0.86328 0.69922-1.5625 1.5625-1.5625h9.9609c0.85938 0 1.5625 0.69922 1.5625 1.5625 0 0.86328-0.70312 1.5625-1.5625 1.5625z"/>
 <path d="m61.117 61.641c-4.3477 0-8.2656-2.6172-9.9258-6.6328-1.6641-4.0117-0.74609-8.6328 2.3281-11.707 3.0703-3.0703 7.6914-3.9883 11.707-2.3281 4.0117 1.6641 6.6328 5.582 6.6328 9.9258-0.007813 5.9297-4.8125 10.734-10.742 10.742zm0-18.359c-3.082 0-5.8594 1.8555-7.0391 4.7031-1.1797 2.8438-0.52734 6.1211 1.6523 8.3008 2.1758 2.1797 5.4531 2.8281 8.3008 1.6523 2.8438-1.1797 4.7031-3.957 4.7031-7.0391 0-2.0195-0.80469-3.957-2.2344-5.3867-1.4258-1.4297-3.3633-2.2305-5.3828-2.2305z"/>
 <path d="m81.531 23.777h-40.82c-0.86328 0-1.5625-0.69922-1.5625-1.5625 0-0.86328 0.69922-1.5625 1.5625-1.5625h40.82c0.85938 0 1.5625 0.69922 1.5625 1.5625 0 0.86328-0.70312 1.5625-1.5625 1.5625z"/>
 <path d="m81.531 30.816h-40.82c-0.86328 0-1.5625-0.69922-1.5625-1.5625 0-0.86328 0.69922-1.5625 1.5625-1.5625h40.82c0.85938 0 1.5625 0.69922 1.5625 1.5625 0 0.86328-0.70312 1.5625-1.5625 1.5625z"/>
 <path d="m81.531 37.859h-40.82c-0.86328 0-1.5625-0.70312-1.5625-1.5625 0-0.86328 0.69922-1.5625 1.5625-1.5625h40.82c0.85938 0 1.5625 0.69922 1.5625 1.5625 0 0.85938-0.70312 1.5625-1.5625 1.5625z"/>
</svg>
