<?xml version="1.0" encoding="UTF-8"?>
<svg width="100pt" height="100pt" version="1.1" viewBox="0 0 100 100" xmlns="http://www.w3.org/2000/svg">
 <path d="m41.086 18.176c0-0.67969 0.55078-1.2305 1.2305-1.2305h24.273c0.67969 0 1.2305 0.55078 1.2305 1.2305v9.5664c0 0.67969-0.55078 1.2305-1.2305 1.2305-0.67969 0-1.2305-0.55078-1.2305-1.2305v-8.3359h-23.047c-0.67578 0-1.2266-0.55078-1.2266-1.2305zm25.504 53.852c-0.67969 0-1.2305 0.55078-1.2305 1.2305v7.3359h-23.047c-0.67969 0-1.2305 0.55078-1.2305 1.2305 0 0.67969 0.55078 1.2305 1.2305 1.2305h24.273c0.67969 0 1.2305-0.55078 1.2305-1.2305v-8.5664c0.003906-0.67969-0.54688-1.2305-1.2266-1.2305zm28.41-7.7227c0 3.5469-2.4062 6.4336-5.3672 6.4336h-46.086c-2.9609 0-5.3672-2.8867-5.3672-6.4336 0-0.67969 0.55078-1.2305 1.2305-1.2305h2.6328v-28.578c0-1.8203 1.4805-3.2969 3.2969-3.2969h42.496c1.8203 0 3.2969 1.4805 3.2969 3.2969v28.578h2.6367c0.67969 0 1.2305 0.55078 1.2305 1.2305zm-50.496-1.2305h44.172v-28.578c0-0.45312-0.38281-0.83594-0.83594-0.83594l-42.5-0.003906c-0.45312 0-0.83594 0.38281-0.83594 0.83594zm47.887 2.4609h-51.602c0.39063 1.5703 1.4922 2.7383 2.7578 2.7383h46.09c1.2578 0.003906 2.3633-1.1641 2.7539-2.7383zm-12.988-19.426c0.21875 0.38281 0.21875 0.85156 0 1.2305l-2.6094 4.5195c-0.21875 0.38281-0.625 0.61328-1.0664 0.61328h-4.5117l-2.2578 3.9102c-0.21875 0.38281-0.625 0.61719-1.0664 0.61719h-4.5117l-2.2578 3.9102c-0.22656 0.39453-0.64062 0.61719-1.0664 0.61719-0.21094 0-0.42188-0.054688-0.61328-0.16406-0.58984-0.33984-0.78906-1.0938-0.44922-1.6797l2.2578-3.9102-2.2578-3.9102c-0.21875-0.38281-0.21875-0.85156 0-1.2305l2.2539-3.9023-1.8984-3.293h-4.5117c-0.67969 0-1.2305-0.55078-1.2305-1.2305 0-0.67969 0.55078-1.2305 1.2305-1.2305h4.5117l2.2539-3.9023c0.21875-0.38281 0.625-0.61328 1.0664-0.61328h5.2227c0.44141 0 0.84766 0.23437 1.0664 0.61328l2.2539 3.9023h3.8008l2.2539-3.9023c0.33984-0.58984 1.0938-0.78906 1.6797-0.44922 0.58984 0.33984 0.78906 1.0938 0.44922 1.6797l-2.2539 3.9023zm-17.918-3.9062 1.8984 3.293h3.8008l1.8984-3.2969-1.8984-3.2891h-3.8008zm7.6016 9.043-1.7031-2.9453-0.19922-0.34375h-3.8008l-1.8984 3.2891 1.8984 3.293h3.8008zm7.832-4.5195-1.8984-3.293h-3.8008l-1.8984 3.2891 1.7031 2.9453 0.19922 0.34375h3.8008zm-43.027 40.613c0.046875 0.67969-0.46875 1.2656-1.1445 1.3125-0.027344 0.003906-0.054688 0.003906-0.085938 0.003906-0.64062 0-1.1836-0.49609-1.2266-1.1484-0.058594-0.88672-0.19141-1.7578-0.38281-2.6094h-17.141c-0.19141 0.85156-0.32031 1.7227-0.38281 2.6094-0.042969 0.64844-0.58594 1.1484-1.2266 1.1484-0.027343 0-0.054687 0-0.085937-0.003906-0.67969-0.046875-1.1914-0.63281-1.1445-1.3125 0.41016-6.0859 3.6367-11.605 8.5938-14.93-1.0469-0.48438-2.0625-1.0391-3.0352-1.6602-5.4961 4.0078-8.8281 10.059-9.1719 16.734-0.035156 0.65625-0.57812 1.168-1.2266 1.168-0.019531 0-0.042969 0-0.0625-0.003906-0.67969-0.035157-1.1992-0.61328-1.1641-1.293 0.36719-7.1562 3.8164-13.664 9.5273-18.105-5.9336-4.6914-9.4258-11.766-9.4258-19.25 0-7.4922 3.4922-14.562 9.4258-19.254-5.7109-4.4414-9.1602-10.949-9.5273-18.105-0.035156-0.67969 0.48828-1.2578 1.1641-1.293 0.67969-0.035156 1.2578 0.48828 1.293 1.1641 0.34375 6.6758 3.6758 12.73 9.1719 16.734 0.97266-0.62109 1.9883-1.1758 3.0352-1.6602-4.9531-3.3242-8.1797-8.8438-8.5938-14.93-0.046875-0.67969 0.46875-1.2656 1.1445-1.3125s1.2656 0.46875 1.3125 1.1445c0.058594 0.88672 0.19141 1.7578 0.38281 2.6094h17.141c0.19141-0.85156 0.32031-1.7227 0.38281-2.6094 0.046875-0.67969 0.62891-1.1914 1.3125-1.1445 0.67969 0.046875 1.1914 0.63281 1.1445 1.3125-0.46875 6.9453-4.6055 13.156-10.801 16.203-0.046875 0.023437-0.097656 0.042969-0.14453 0.0625-1.9766 0.67578-3.8516 1.6133-5.5742 2.7852-0.015625 0.011719-0.035156 0.023438-0.054688 0.035157-6.1094 4.1875-9.7539 11.008-9.7539 18.258 0 7.2617 3.6641 14.102 9.8008 18.289 1.7227 1.1719 3.5977 2.1094 5.5781 2.7852 0.050782 0.015625 0.097657 0.035156 0.14453 0.0625 6.1953 3.0508 10.332 9.2578 10.801 16.203zm-4.7734-67.328c0.45703-0.78125 0.85156-1.5977 1.1836-2.4453l-15.637-0.003906c0.32813 0.84766 0.72656 1.6641 1.1836 2.4453zm-6.6367 6.3984c1.8828-1.0039 3.5312-2.3477 4.8906-3.9375h-9.7734c1.3555 1.5898 3.0039 2.9336 4.8828 3.9375zm-4.8828 51.117h9.7734c-1.3555-1.5898-3.0078-2.9336-4.8906-3.9375-1.8789 1.0039-3.5273 2.3477-4.8828 3.9375zm12.703 4.9102c-0.32812-0.84766-0.72656-1.6641-1.1836-2.4453l-13.27-0.003907c-0.45703 0.78125-0.85156 1.5977-1.1836 2.4453zm9.6602 4.9258c0.035156 0.67969-0.48828 1.2578-1.168 1.293-0.019531 0-0.042969 0.003906-0.0625 0.003906-0.65234 0-1.1953-0.51172-1.2266-1.168-0.35547-6.9961-4.0078-13.238-9.7031-17.129-0.09375-0.046875-0.17969-0.10938-0.26172-0.17969-1.6406-1.0859-3.4453-1.9805-5.3867-2.6406-0.050782-0.015625-0.097656-0.035157-0.14453-0.0625-6.5859-3.2461-10.84-10.105-10.84-17.48s4.2539-14.234 10.836-17.477c0.046875-0.023438 0.097656-0.042969 0.14453-0.0625 1.9414-0.66406 3.75-1.5586 5.3906-2.6445 0.078126-0.070312 0.16406-0.13281 0.25781-0.17969 5.6992-3.8867 9.3477-10.133 9.7031-17.129 0.035156-0.67969 0.60938-1.2031 1.293-1.168 0.67969 0.035156 1.1992 0.61328 1.168 1.293-0.25391 5.0039-2.0352 9.7539-5.1484 13.738-1.2812 1.6406-2.75 3.1016-4.375 4.3672 5.9297 4.6914 9.4258 11.77 9.4258 19.254 0 7.4805-3.4961 14.559-9.4258 19.254 1.625 1.2656 3.0938 2.7305 4.375 4.3672 3.1133 3.9922 4.8945 8.7461 5.1484 13.75zm-23.512-46.73h12.07c-1.5117-2.3008-3.5703-4.2422-6.0352-5.5859-2.4688 1.3477-4.5273 3.2852-6.0352 5.5859zm-2.3477 5.4219h16.766c-0.24609-1.0195-0.58203-2.0078-1.0039-2.9609h-14.758c-0.42578 0.94922-0.75781 1.9414-1.0039 2.9609zm-0.40234 5.4258h17.57c0.042969-0.48828 0.066407-0.98438 0.066407-1.4805s-0.023438-0.99219-0.070313-1.4844h-17.566c-0.042969 0.49219-0.070313 0.98828-0.070313 1.4844s0.023438 0.98828 0.070313 1.4805zm1.4062 5.4258h14.758c0.42188-0.95312 0.76172-1.9453 1.0039-2.9648h-16.766c0.24219 1.0195 0.57813 2.0117 1.0039 2.9648zm7.375 8.043c2.4648-1.3438 4.5234-3.2812 6.0352-5.5859l-12.066 0.003907c1.5078 2.3008 3.5664 4.2383 6.0312 5.582zm5.8438 2.8242c5.6992-4.2227 9.0781-10.805 9.0781-17.773 0-6.9727-3.3789-13.559-9.0781-17.773-0.97656 0.61328-2 1.1641-3.0625 1.6445 5.2539 3.5781 8.5352 9.6602 8.5352 16.129s-3.2812 12.551-8.5352 16.129c1.0625 0.48047 2.0859 1.0312 3.0625 1.6445z"/>
</svg>
