<svg xmlns="http://www.w3.org/2000/svg" xmlns:xlink="http://www.w3.org/1999/xlink" version="1.1" x="0px" y="0px" viewBox="0 0 64 64" enable-background="new 0 0 64 64" xml:space="preserve"><path d="M19,6.414l-2-2V0h2v3.586l2,2V8h-2V6.414z M23,8h2V4.586l-2-2V0h-2v3.414l2,2V8z M27,8h2V3.586l-2-2V0h-2v2.414l2,2V8z   M43,8h2V6.414l2-2V0h-2v3.586l-2,2V8z M39,8h2V5.414l2-2V0h-2v2.586l-2,2V8z M37,4.414l2-2V0h-2v1.586l-2,2V8h2V4.414z M33,0h-2v8  h2V0z M45,56h-2v2.414l2,2V64h2v-4.414l-2-2V56z M41,56h-2v3.414l2,2V64h2v-3.414l-2-2V56z M37,56h-2v4.414l2,2V64h2v-2.414l-2-2V56  z M21,56h-2v1.586l-2,2V64h2v-3.586l2-2V56z M25,56h-2v2.586l-2,2V64h2v-2.586l2-2V56z M27,59.586l-2,2V64h2v-1.586l2-2V56h-2  V59.586z M31,64h2v-8h-2V64z M8,45v-2H5.586l-2,2H0v2h4.414l2-2H8z M5.414,41H8v-2H4.586l-2,2H0v2h3.414L5.414,41z M4.414,37H8v-2  H3.586l-2,2H0v2h2.414L4.414,37z M5.586,21H8v-2H6.414l-2-2H0v2h3.586L5.586,21z M4.586,25H8v-2H5.414l-2-2H0v2h2.586L4.586,25z   M3.586,29H8v-2H4.414l-2-2H0v2h1.586L3.586,29z M8,31H0v2h8V31z M59.586,17l-2,2H56v2h2.414l2-2H64v-2H59.586z M58.586,23H56v2  h3.414l2-2H64v-2h-3.414L58.586,23z M59.586,27H56v2h4.414l2-2H64v-2h-2.414L59.586,27z M58.414,43H56v2h1.586l2,2H64v-2h-3.586  L58.414,43z M59.414,39H56v2h2.586l2,2H64v-2h-2.586L59.414,39z M60.414,35H56v2h3.586l2,2H64v-2h-1.586L60.414,35z M56,33h8v-2h-8  V33z M23,25h2v-2h-2V25z M27,25h2v-2h-2V25z M31,25h2v-2h-2V25z M35,25h2v-2h-2V25z M39,25h2v-2h-2V25z M23,29h2v-2h-2V29z M27,29h2  v-2h-2V29z M31,29h2v-2h-2V29z M35,29h2v-2h-2V29z M39,29h2v-2h-2V29z M23,33h2v-2h-2V33z M27,33h2v-2h-2V33z M31,33h2v-2h-2V33z   M35,33h2v-2h-2V33z M39,33h2v-2h-2V33z M23,37h2v-2h-2V37z M27,37h2v-2h-2V37z M31,37h2v-2h-2V37z M35,37h2v-2h-2V37z M39,37h2v-2  h-2V37z M23,41h2v-2h-2V41z M27,41h2v-2h-2V41z M31,41h2v-2h-2V41z M35,41h2v-2h-2V41z M39,41h2v-2h-2V41z M51,54H13  c-1.654,0-3-1.346-3-3V13c0-1.654,1.346-3,3-3h38c1.654,0,3,1.346,3,3v38C54,52.654,52.654,54,51,54z M52,13c0-0.551-0.448-1-1-1H13  c-0.551,0-1,0.449-1,1v38c0,0.552,0.449,1,1,1h38c0.552,0,1-0.448,1-1V13z M46,48h2v-2h-2V48z M16,16h32v28h-1c-1.654,0-3,1.346-3,3  v1H16V16z M18,46h24.101c0.398-1.956,1.943-3.501,3.899-3.899V18H18V46z M56,12h2V6h-6v2h4V12z M8,8h4V6H6v6h2V8z M8,52H6v6h6v-2H8  V52z M56,56h-4v2h6v-6h-2V56z"></path></svg>