<?xml version="1.0" encoding="UTF-8"?>
<svg width="100pt" height="100pt" version="1.1" viewBox="0 0 100 100" xmlns="http://www.w3.org/2000/svg">
 <path d="m28.664 9.6055c-0.30078-0.60156-0.050781-1.332 0.55078-1.6328 6.4922-3.2148 13.484-4.8477 20.785-4.8477 13.23 0 25.602 5.4688 34.473 15.113l-0.60156-3.0742c-0.12891-0.66016 0.30078-1.3008 0.96094-1.4297 0.66016-0.12891 1.3008 0.30078 1.4297 0.96094l1.3477 6.9141c0.078125 0.39844-0.046875 0.80859-0.33594 1.0938-0.23047 0.23047-0.54297 0.35547-0.85938 0.35547-0.078124 0-0.15625-0.007813-0.23437-0.023438l-6.9141-1.3477c-0.66016-0.12891-1.0898-0.76953-0.96094-1.4297 0.12891-0.66016 0.76953-1.0898 1.4297-0.96094l2.9375 0.57422c-8.4102-9.1328-20.133-14.312-32.672-14.312-6.9219 0-13.551 1.5469-19.707 4.5977-0.60156 0.29688-1.332 0.050781-1.6289-0.55078zm-23.105 40.395c0-12.539 5.1797-24.262 14.316-32.672l-0.57422 2.9375c-0.12891 0.66016 0.30078 1.3008 0.96094 1.4297 0.078125 0.015626 0.15625 0.023438 0.23438 0.023438 0.57031 0 1.082-0.40234 1.1953-0.98438l1.3477-6.9141c0.078126-0.39844-0.046874-0.80859-0.33594-1.0938-0.28516-0.28516-0.69531-0.41016-1.0938-0.33594l-6.9141 1.3477c-0.66016 0.12891-1.0898 0.76953-0.96094 1.4297 0.12891 0.66016 0.76953 1.0898 1.4297 0.96094l3.0742-0.60156c-9.6445 8.8711-15.113 21.242-15.113 34.473 0 7.3008 1.6328 14.293 4.8477 20.785 0.21094 0.42969 0.64453 0.67578 1.0898 0.67578 0.17969 0 0.36719-0.039063 0.53906-0.12891 0.60156-0.30078 0.84766-1.0273 0.55078-1.6328-3.0469-6.1484-4.5938-12.777-4.5938-19.699zm64.148 39.844c-6.1562 3.0508-12.785 4.5977-19.707 4.5977-12.539 0-24.262-5.1797-32.672-14.316l2.9375 0.57422c0.66016 0.12891 1.3008-0.30078 1.4297-0.96094 0.12891-0.66016-0.30078-1.3008-0.96094-1.4297l-6.9141-1.3477c-0.39844-0.078126-0.80859 0.046874-1.0938 0.33594-0.28516 0.28516-0.41016 0.69531-0.33594 1.0938l1.3477 6.9141c0.11328 0.58203 0.62109 0.98437 1.1953 0.98437 0.078125 0 0.15625-0.007812 0.23438-0.023437 0.66016-0.12891 1.0898-0.76953 0.96094-1.4297l-0.60156-3.0742c8.8711 9.6445 21.242 15.113 34.473 15.113 7.3008 0 14.293-1.6328 20.785-4.8477 0.60156-0.30078 0.84766-1.0273 0.55078-1.6328-0.29688-0.60156-1.0273-0.85156-1.6289-0.55078zm15.129-5.9727-3.0742 0.60156c9.6445-8.8711 15.113-21.242 15.113-34.473 0-7.3008-1.6328-14.293-4.8477-20.785-0.30078-0.60156-1.0273-0.84766-1.6328-0.55078-0.60156 0.30078-0.84766 1.0273-0.55078 1.6328 3.0508 6.1523 4.5977 12.785 4.5977 19.707 0 12.539-5.1797 24.262-14.316 32.672l0.57422-2.9375c0.12891-0.66016-0.30078-1.3008-0.96094-1.4297-0.66016-0.12891-1.3008 0.30078-1.4297 0.96094l-1.3477 6.9141c-0.078126 0.39844 0.046874 0.80859 0.33594 1.0938 0.23047 0.23047 0.54297 0.35547 0.85938 0.35547 0.078125 0 0.15625-0.007812 0.23438-0.023437l6.9141-1.3477c0.66016-0.12891 1.0898-0.76953 0.96094-1.4297-0.13281-0.65625-0.76953-1.0859-1.4297-0.96094zm-73.113-33.871c0-21.105 17.172-38.277 38.277-38.277s38.277 17.172 38.277 38.277-17.172 38.277-38.277 38.277-38.277-17.172-38.277-38.277zm68.68 18.961-30.402-17.555-30.402 17.555c6.3398 10.129 17.598 16.883 30.402 16.883s24.062-6.7539 30.402-16.883zm-29.184-54.781v35.117l30.406 17.555c2.6914-5.0273 4.2188-10.766 4.2188-16.852 0-19.355-15.426-35.176-34.625-35.82zm-37.062 35.82c0 6.0898 1.5273 11.824 4.2188 16.852l30.406-17.555v-35.117c-19.199 0.64453-34.625 16.465-34.625 35.82zm38.977-24.562c0.58203-0.33594 1.3281-0.14062 1.6641 0.44141 0.097656 0.16797 0.20312 0.33594 0.31641 0.49609l8.8633-5.1445c-0.085937-0.17578-0.17578-0.35156-0.27344-0.51953-0.33594-0.58203-0.14062-1.3281 0.44141-1.6641s1.3281-0.14062 1.6641 0.44141c0.33594 0.57812 0.60547 1.1836 0.81641 1.8086 0.027344 0.0625 0.046875 0.12891 0.0625 0.19531 0.41406 1.3359 0.55078 2.7578 0.41016 4.1992 0 0.09375-0.007812 0.1875-0.03125 0.27734-0.16016 1.3125-0.55078 2.6367-1.1602 3.918 1.4141 0.10156 2.7539 0.42188 3.9727 0.92969 0.089844 0.027344 0.17969 0.066406 0.26562 0.11719 1.3203 0.58984 2.4883 1.4141 3.4414 2.4375 0.050781 0.042968 0.097656 0.097656 0.13672 0.14844 0.44141 0.49219 0.83203 1.0273 1.168 1.6055s0.60547 1.1836 0.81641 1.8086c0.027344 0.0625 0.046875 0.12891 0.0625 0.19531 0.41406 1.3359 0.55078 2.7578 0.41016 4.1992 0 0.09375-0.007813 0.19141-0.03125 0.28125-0.16016 1.3125-0.55078 2.6367-1.1602 3.9141 1.4141 0.10156 2.7539 0.42187 3.9727 0.92969 0.09375 0.027344 0.18359 0.066406 0.26953 0.11719 1.3203 0.58984 2.4844 1.4141 3.4375 2.4336 0.050781 0.046875 0.097656 0.097656 0.14062 0.15234 0.44141 0.49219 0.83203 1.0273 1.168 1.6055 0.33594 0.58203 0.14063 1.3281-0.44141 1.6641-0.58203 0.33594-1.3281 0.14062-1.6641-0.44141-0.097656-0.16797-0.20312-0.33594-0.31641-0.49609l-8.8633 5.1445c0.085938 0.17578 0.17578 0.35156 0.27344 0.51953 0.33594 0.58203 0.14062 1.3281-0.44141 1.6641-0.19141 0.11328-0.40234 0.16406-0.60938 0.16406-0.41797 0-0.82812-0.21875-1.0547-0.60547-0.33594-0.57812-0.60547-1.1836-0.81641-1.8125-0.027344-0.0625-0.046875-0.12891-0.058594-0.19141-0.41797-1.3359-0.55078-2.7578-0.41016-4.1992 0-0.09375 0.007812-0.1875 0.03125-0.27734 0.16016-1.3164 0.55078-2.6406 1.1641-3.9219-1.3984-0.10156-2.7227-0.41406-3.9297-0.91406-0.10547-0.027344-0.20312-0.066406-0.29688-0.12109-1.332-0.59766-2.5117-1.4258-3.4688-2.4609-0.054688-0.050781-0.10547-0.10937-0.14844-0.17187-0.42578-0.48047-0.8125-1.0039-1.1406-1.5703-0.33594-0.57812-0.60547-1.1836-0.81641-1.8086-0.027344-0.0625-0.046875-0.12891-0.0625-0.19531-0.41406-1.3359-0.55078-2.7578-0.41016-4.1992 0-0.09375 0.007812-0.19141 0.03125-0.28125 0.16016-1.3125 0.55078-2.6367 1.1641-3.918-1.3984-0.10156-2.7227-0.41406-3.9297-0.91406-0.10156-0.027344-0.20312-0.066407-0.29688-0.12109-1.332-0.59766-2.5117-1.4258-3.4727-2.4609-0.054688-0.050782-0.10547-0.10938-0.14844-0.17188-0.42578-0.48047-0.8125-1.0039-1.1406-1.5703-0.35156-0.57422-0.15234-1.3203 0.42969-1.6562zm16.434 7.9258-6.6914 3.8828c-0.019531 0.44922-0.003906 0.89453 0.042969 1.332l7.7773-4.5156c-0.35156-0.26172-0.73047-0.49609-1.1289-0.69922zm3.1094 16.289 2.8008-1.625c-0.62109-0.082032-1.2656-0.11719-1.9258-0.09375-0.34766 0.55859-0.64062 1.1367-0.875 1.7188zm0.37891-5.7969-2.8008 1.625c0.62109 0.082031 1.2656 0.11719 1.9258 0.09375 0.34766-0.5625 0.64062-1.1367 0.875-1.7188zm0.67578-4.5664-7.7773 4.5156c0.35547 0.25781 0.73047 0.49219 1.1328 0.69922l6.6914-3.8828c0.019531-0.45312 0.003906-0.89453-0.046875-1.332zm-1.2695-3.4336-8.8633 5.1445c0.085938 0.17578 0.17578 0.35156 0.27344 0.51953s0.20312 0.33594 0.31641 0.49609l8.8633-5.1445c-0.085937-0.17578-0.17578-0.35156-0.27344-0.51953-0.097656-0.17187-0.20312-0.33594-0.31641-0.49609zm-6.0625-3.4688c-0.62109-0.082031-1.2656-0.11719-1.9258-0.09375-0.34766 0.5625-0.63672 1.1367-0.875 1.7188zm-2.4219-4.1719-2.8008 1.625c0.62109 0.082031 1.2656 0.11719 1.9258 0.09375 0.34766-0.5625 0.63672-1.1367 0.875-1.7188zm8.0195 26 7.7773-4.5156c-0.35547-0.25781-0.73438-0.49219-1.1328-0.69922l-6.6914 3.8828c-0.015625 0.45313 0 0.89844 0.046875 1.332zm-7.3438-30.566-7.7773 4.5156c0.35547 0.25781 0.73047 0.49219 1.1328 0.69922l6.6914-3.8828c0.019531-0.44922 0.003906-0.89453-0.046875-1.332zm-43.344 22.113v-13.82c0-1.457 1.1836-2.6406 2.6406-2.6406h19.742c1.457 0 2.6406 1.1836 2.6406 2.6406v13.82c0 1.457-1.1836 2.6406-2.6406 2.6406h-5.293v1.5508h1.4258c0.67188 0 1.2188 0.54297 1.2188 1.2188 0 0.67188-0.54297 1.2188-1.2188 1.2188l-12.008-0.003906c-0.67188 0-1.2188-0.54297-1.2188-1.2188 0-0.67188 0.54297-1.2188 1.2188-1.2188h1.4258v-1.5508h-5.293c-1.457 0.003906-2.6406-1.1836-2.6406-2.6367zm14.652 2.6406h-4.2891v1.5508h4.2891zm-12.219-2.6406c0 0.10938 0.097656 0.20703 0.20703 0.20703h19.742c0.10938 0 0.20703-0.097656 0.20703-0.20703l-0.003907-13.82c0-0.10938-0.097656-0.20703-0.20703-0.20703l-19.738 0.003906c-0.10938 0-0.20703 0.097657-0.20703 0.20703zm21.152 26.273h-14.562c-0.67188 0-1.2188-0.54297-1.2188-1.2188 0-0.67188 0.54297-1.2188 1.2188-1.2188h14.566c0.51953-1.6328 2.0469-2.8164 3.8477-2.8164 2.2227 0 4.0352 1.8086 4.0352 4.0352 0 2.2227-1.8086 4.0352-4.0352 4.0352-1.8047 0-3.332-1.1836-3.8516-2.8164zm2.2461-1.2188c0 0.88281 0.71875 1.5977 1.5977 1.5977 0.88281 0 1.5977-0.71875 1.5977-1.5977 0-0.88281-0.71875-1.5977-1.5977-1.5977-0.87891 0-1.5977 0.71484-1.5977 1.5977zm13.371-8.7031c0 2.2227-1.8086 4.0352-4.0352 4.0352-1.8008 0-3.3281-1.1836-3.8477-2.8164h-8.1523l-2.3203 4.0352c-0.21875 0.37891-0.62109 0.60937-1.0547 0.60937h-6.332c-0.67188 0-1.2188-0.54297-1.2188-1.2188 0-0.67187 0.54297-1.2188 1.2188-1.2188h5.6289l2.3203-4.0352c0.003906-0.007812 0.011719-0.019531 0.019531-0.027344 0.011719-0.019531 0.027344-0.042968 0.039063-0.0625 0.011718-0.015624 0.023437-0.03125 0.035156-0.046874 0.011719-0.015626 0.023438-0.03125 0.039062-0.046876 0.015626-0.015624 0.027344-0.035156 0.042969-0.050781 0.011719-0.011719 0.023438-0.023437 0.035157-0.035156 0.015624-0.015625 0.035156-0.03125 0.050781-0.046875 0.011719-0.011719 0.023437-0.019531 0.035156-0.03125 0.019531-0.015625 0.035156-0.027344 0.054687-0.039062 0.015626-0.011719 0.027344-0.019532 0.042969-0.027344 0.019531-0.011719 0.035157-0.023438 0.054688-0.03125 0.015625-0.007813 0.035156-0.019532 0.050781-0.027344s0.035156-0.015625 0.050781-0.023438c0.019531-0.007812 0.039063-0.019531 0.058594-0.027343 0.015625-0.007813 0.03125-0.011719 0.046875-0.019531 0.019531-0.007813 0.042969-0.015626 0.066406-0.019532 0.015625-0.003906 0.035156-0.007812 0.050782-0.011718 0.019531-0.003907 0.042968-0.007813 0.0625-0.011719 0.019531-0.003907 0.039062-0.007813 0.058593-0.007813 0.019531-0.003906 0.035157-0.003906 0.054688-0.007812 0.023437-0.003906 0.050781-0.003906 0.074219-0.003906 0.011718 0 0.019531-0.003907 0.03125-0.003907h8.8555c0.51953-1.6328 2.0469-2.8164 3.8477-2.8164 2.2227 0 4.0352 1.8125 4.0352 4.0352zm-2.4375 0c0-0.88281-0.71875-1.5977-1.5977-1.5977-0.88281 0-1.5977 0.71484-1.5977 1.5977 0 0.88281 0.71875 1.5977 1.5977 1.5977 0.88281 0 1.5977-0.71484 1.5977-1.5977zm2.4375 17.41c0 2.2227-1.8086 4.0352-4.0352 4.0352-1.8008 0-3.3281-1.1836-3.8477-2.8164h-8.8516-0.003906-0.011719c-0.046875 0-0.089844-0.003907-0.13281-0.007813-0.011718-0.003906-0.027344-0.003906-0.039062-0.007813-0.035156-0.003906-0.070313-0.011718-0.10547-0.019531-0.011719-0.003906-0.023437-0.007812-0.035156-0.007812-0.039063-0.011719-0.078125-0.023438-0.11719-0.039063-0.007812-0.003906-0.011719-0.003906-0.019531-0.007812-0.042969-0.019532-0.085938-0.039063-0.12891-0.0625-0.011719-0.007813-0.019532-0.011719-0.03125-0.019532-0.03125-0.019531-0.058594-0.039062-0.089844-0.058593-0.011719-0.007813-0.027344-0.019531-0.039062-0.03125-0.027344-0.023438-0.054688-0.046875-0.082032-0.070313-0.007812-0.007812-0.019531-0.015625-0.027344-0.023437-0.035156-0.035157-0.0625-0.070313-0.09375-0.10547-0.007812-0.011719-0.015624-0.023438-0.023437-0.03125-0.023437-0.03125-0.046875-0.066406-0.066406-0.10156-0.003907-0.007813-0.007813-0.011719-0.011719-0.015626l-2.3203-4.0352-5.6289-0.003906c-0.67188 0-1.2188-0.54297-1.2188-1.2188 0-0.67188 0.54297-1.2188 1.2188-1.2188h6.332c0.43359 0 0.83594 0.23047 1.0547 0.60938l2.3203 4.0352h8.1523c0.51953-1.6328 2.0469-2.8164 3.8477-2.8164 2.2227 0.003906 4.0352 1.8125 4.0352 4.0391zm-2.4375 0c0-0.88281-0.71875-1.5977-1.5977-1.5977-0.88281 0-1.5977 0.71484-1.5977 1.5977 0 0.88281 0.71875 1.5977 1.5977 1.5977 0.88281 0 1.5977-0.71875 1.5977-1.5977z"/>
</svg>
