<svg xmlns="http://www.w3.org/2000/svg" xmlns:xlink="http://www.w3.org/1999/xlink" version="1.1" x="0px" y="0px" viewBox="0 0 100 100" enable-background="new 0 0 100 100" xml:space="preserve"><g><path d="M33.5,29l4.6,1.9c-0.7,3.4-0.7,7,0,10.5l-4.6,1.9c-1.1,0.5-1.7,1.8-1.2,2.9l2.3,5.6c0.5,1.1,1.8,1.7,2.9,1.2l4.6-1.9   c2,3,4.5,5.5,7.4,7.4l-1.9,4.6c-0.5,1.1,0.1,2.4,1.2,2.9l5.6,2.3c1.1,0.5,2.4-0.1,2.9-1.2l1.9-4.6c3.4,0.7,7,0.7,10.5,0l1.9,4.6   c0.5,1.1,1.8,1.7,2.9,1.2l5.6-2.3c1.1-0.5,1.7-1.8,1.2-2.9l-1.9-4.6c3-2,5.5-4.5,7.4-7.4l4.6,1.9c1.1,0.5,2.4-0.1,2.9-1.2l2.3-5.6   c0.5-1.1-0.1-2.4-1.2-2.9l-4.6-1.9c0.7-3.4,0.7-7,0-10.5l4.6-1.9c1.1-0.5,1.7-1.8,1.2-2.9l-2.3-5.6c-0.5-1.1-1.8-1.7-2.9-1.2   l-4.6,1.9c-2-3-4.5-5.5-7.4-7.4l1.9-4.6c0.5-1.1-0.1-2.4-1.2-2.9L74.5,4c-1.1-0.5-2.4,0.1-2.9,1.2l-1.9,4.6c-3.4-0.7-7-0.7-10.5,0   l-1.9-4.6c-0.5-1.1-1.8-1.7-2.9-1.2l-5.6,2.3c-1.1,0.5-1.7,1.8-1.2,2.9l1.9,4.6c-3,2-5.5,4.5-7.4,7.4l-4.6-1.9   c-1.1-0.5-2.4,0.1-2.9,1.2l-2.3,5.6C31.8,27.3,32.4,28.6,33.5,29z M57.4,19.1c9.4-3.9,20.2,0.6,24.1,10c3.9,9.4-0.6,20.2-10,24.1   c-9.4,3.9-20.2-0.6-24.1-10C43.5,33.8,48,23,57.4,19.1z M54.5,45.1l2.9-10.6c0.2-0.6,0.9-0.8,1.4-0.4l1.4,1.4l8.9-8.9   c0.6-0.6,1.6-0.6,2.2,0l2.7,2.7c0.6,0.6,0.6,1.6,0,2.2l-8.9,8.9l1.4,1.4c0.5,0.5,0.2,1.2-0.4,1.4l-10.6,2.9   C54.9,46.3,54.3,45.7,54.5,45.1z M5.1,77.5l2.9,0c0.4,2.2,1.3,4.4,2.6,6.3l-2,2c-0.7,0.7-0.7,1.9,0,2.6l2.2,2.2   c0.7,0.7,1.9,0.7,2.6,0l2-2c1.9,1.3,4.1,2.2,6.3,2.6l0,2.9c0,1,0.8,1.9,1.9,1.9l3.1,0c1,0,1.9-0.8,1.9-1.9l0-2.9   c2.2-0.4,4.4-1.3,6.3-2.6l2,2c0.7,0.7,1.9,0.7,2.6,0l2.2-2.2c0.7-0.7,0.7-1.9,0-2.6l-2-2c1.3-1.9,2.2-4.1,2.6-6.3l2.9,0   c1,0,1.9-0.8,1.9-1.9l0-3.1c0-1-0.8-1.9-1.9-1.9l-2.9,0c-0.4-2.2-1.3-4.4-2.6-6.3l2-2c0.7-0.7,0.7-1.9,0-2.6l-2.2-2.2   c-0.7-0.7-1.9-0.7-2.6,0l-2,2c-1.9-1.3-4.1-2.2-6.3-2.6l0-2.9c0-1-0.8-1.9-1.9-1.9l-3.1,0c-1,0-1.9,0.8-1.9,1.9l0,2.9   c-2.2,0.4-4.4,1.3-6.3,2.6l-2-2c-0.7-0.7-1.9-0.7-2.6,0l-2.2,2.2c-0.7,0.7-0.7,1.9,0,2.6l2,2c-1.3,1.9-2.2,4.1-2.6,6.3l-2.9,0   c-1,0-1.9,0.8-1.9,1.9l0,3.1C3.2,76.7,4,77.5,5.1,77.5z M17.8,77.2l5.8-5.8l-1.3-1.3c-0.4-0.4-0.2-1.1,0.3-1.2l9.4-2.5   c0.5-0.1,1,0.4,0.9,0.9l-2.5,9.4c-0.1,0.5-0.8,0.7-1.2,0.3l-1.3-1.3l-5.8,5.8c-0.5,0.5-1.4,0.5-2,0l-2.4-2.4   C17.2,78.7,17.2,77.8,17.8,77.2z"></path></g></svg>