<svg xmlns="http://www.w3.org/2000/svg" xmlns:xlink="http://www.w3.org/1999/xlink" version="1.2" baseProfile="tiny" x="0px" y="0px" viewBox="0 0 128 128" xml:space="preserve"><g><circle fill="none" stroke="#000000" stroke-width="4" stroke-linecap="round" stroke-linejoin="round" stroke-miterlimit="10" cx="64" cy="64" r="56"></circle></g><line fill="none" stroke="#000000" stroke-width="4" stroke-linecap="square" stroke-linejoin="round" stroke-miterlimit="10" x1="64" y1="2" x2="64" y2="7"></line><line fill="none" stroke="#000000" stroke-width="4" stroke-linecap="square" stroke-linejoin="round" stroke-miterlimit="10" x1="64" y1="121" x2="64" y2="126"></line><line fill="none" stroke="#000000" stroke-width="4" stroke-linecap="square" stroke-linejoin="round" stroke-miterlimit="10" x1="53.2" y1="2.9" x2="54.1" y2="7.9"></line><line fill="none" stroke="#000000" stroke-width="4" stroke-linecap="square" stroke-linejoin="round" stroke-miterlimit="10" x1="73.9" y1="120.1" x2="74.8" y2="125.1"></line><line fill="none" stroke="#000000" stroke-width="4" stroke-linecap="square" stroke-linejoin="round" stroke-miterlimit="10" x1="42.8" y1="5.7" x2="44.5" y2="10.4"></line><line fill="none" stroke="#000000" stroke-width="4" stroke-linecap="square" stroke-linejoin="round" stroke-miterlimit="10" x1="83.5" y1="117.6" x2="85.2" y2="122.3"></line><line fill="none" stroke="#000000" stroke-width="4" stroke-linecap="square" stroke-linejoin="round" stroke-miterlimit="10" x1="33" y1="10.3" x2="35.5" y2="14.6"></line><line fill="none" stroke="#000000" stroke-width="4" stroke-linecap="square" stroke-linejoin="round" stroke-miterlimit="10" x1="92.5" y1="113.4" x2="95" y2="117.7"></line><line fill="none" stroke="#000000" stroke-width="4" stroke-linecap="square" stroke-linejoin="round" stroke-miterlimit="10" x1="24.1" y1="16.5" x2="27.4" y2="20.3"></line><line fill="none" stroke="#000000" stroke-width="4" stroke-linecap="square" stroke-linejoin="round" stroke-miterlimit="10" x1="100.6" y1="107.7" x2="103.9" y2="111.5"></line><line fill="none" stroke="#000000" stroke-width="4" stroke-linecap="square" stroke-linejoin="round" stroke-miterlimit="10" x1="16.5" y1="24.1" x2="20.3" y2="27.4"></line><line fill="none" stroke="#000000" stroke-width="4" stroke-linecap="square" stroke-linejoin="round" stroke-miterlimit="10" x1="107.7" y1="100.6" x2="111.5" y2="103.9"></line><line fill="none" stroke="#000000" stroke-width="4" stroke-linecap="square" stroke-linejoin="round" stroke-miterlimit="10" x1="10.3" y1="33" x2="14.6" y2="35.5"></line><line fill="none" stroke="#000000" stroke-width="4" stroke-linecap="square" stroke-linejoin="round" stroke-miterlimit="10" x1="113.4" y1="92.5" x2="117.7" y2="95"></line><line fill="none" stroke="#000000" stroke-width="4" stroke-linecap="square" stroke-linejoin="round" stroke-miterlimit="10" x1="5.7" y1="42.8" x2="10.4" y2="44.5"></line><line fill="none" stroke="#000000" stroke-width="4" stroke-linecap="square" stroke-linejoin="round" stroke-miterlimit="10" x1="117.6" y1="83.5" x2="122.3" y2="85.2"></line><line fill="none" stroke="#000000" stroke-width="4" stroke-linecap="square" stroke-linejoin="round" stroke-miterlimit="10" x1="2.9" y1="53.2" x2="7.9" y2="54.1"></line><line fill="none" stroke="#000000" stroke-width="4" stroke-linecap="square" stroke-linejoin="round" stroke-miterlimit="10" x1="120.1" y1="73.9" x2="125.1" y2="74.8"></line><line fill="none" stroke="#000000" stroke-width="4" stroke-linecap="square" stroke-linejoin="round" stroke-miterlimit="10" x1="2" y1="64" x2="7" y2="64"></line><line fill="none" stroke="#000000" stroke-width="4" stroke-linecap="square" stroke-linejoin="round" stroke-miterlimit="10" x1="121" y1="64" x2="126" y2="64"></line><line fill="none" stroke="#000000" stroke-width="4" stroke-linecap="square" stroke-linejoin="round" stroke-miterlimit="10" x1="2.9" y1="74.8" x2="7.9" y2="73.9"></line><line fill="none" stroke="#000000" stroke-width="4" stroke-linecap="square" stroke-linejoin="round" stroke-miterlimit="10" x1="120.1" y1="54.1" x2="125.1" y2="53.2"></line><line fill="none" stroke="#000000" stroke-width="4" stroke-linecap="square" stroke-linejoin="round" stroke-miterlimit="10" x1="5.7" y1="85.2" x2="10.4" y2="83.5"></line><line fill="none" stroke="#000000" stroke-width="4" stroke-linecap="square" stroke-linejoin="round" stroke-miterlimit="10" x1="117.6" y1="44.5" x2="122.3" y2="42.8"></line><line fill="none" stroke="#000000" stroke-width="4" stroke-linecap="square" stroke-linejoin="round" stroke-miterlimit="10" x1="10.3" y1="95" x2="14.6" y2="92.5"></line><line fill="none" stroke="#000000" stroke-width="4" stroke-linecap="square" stroke-linejoin="round" stroke-miterlimit="10" x1="113.4" y1="35.5" x2="117.7" y2="33"></line><line fill="none" stroke="#000000" stroke-width="4" stroke-linecap="square" stroke-linejoin="round" stroke-miterlimit="10" x1="16.5" y1="103.9" x2="20.3" y2="100.6"></line><line fill="none" stroke="#000000" stroke-width="4" stroke-linecap="square" stroke-linejoin="round" stroke-miterlimit="10" x1="107.7" y1="27.4" x2="111.5" y2="24.1"></line><line fill="none" stroke="#000000" stroke-width="4" stroke-linecap="square" stroke-linejoin="round" stroke-miterlimit="10" x1="24.1" y1="111.5" x2="27.4" y2="107.7"></line><line fill="none" stroke="#000000" stroke-width="4" stroke-linecap="square" stroke-linejoin="round" stroke-miterlimit="10" x1="100.6" y1="20.3" x2="103.9" y2="16.5"></line><line fill="none" stroke="#000000" stroke-width="4" stroke-linecap="square" stroke-linejoin="round" stroke-miterlimit="10" x1="33" y1="117.7" x2="35.5" y2="113.4"></line><line fill="none" stroke="#000000" stroke-width="4" stroke-linecap="square" stroke-linejoin="round" stroke-miterlimit="10" x1="92.5" y1="14.6" x2="95" y2="10.3"></line><line fill="none" stroke="#000000" stroke-width="4" stroke-linecap="square" stroke-linejoin="round" stroke-miterlimit="10" x1="42.8" y1="122.3" x2="44.5" y2="117.6"></line><line fill="none" stroke="#000000" stroke-width="4" stroke-linecap="square" stroke-linejoin="round" stroke-miterlimit="10" x1="83.5" y1="10.4" x2="85.2" y2="5.7"></line><line fill="none" stroke="#000000" stroke-width="4" stroke-linecap="square" stroke-linejoin="round" stroke-miterlimit="10" x1="53.2" y1="125.1" x2="54.1" y2="120.1"></line><line fill="none" stroke="#000000" stroke-width="4" stroke-linecap="square" stroke-linejoin="round" stroke-miterlimit="10" x1="73.9" y1="7.9" x2="74.8" y2="2.9"></line><g><circle fill="none" stroke="#000000" stroke-width="4" stroke-linecap="round" stroke-linejoin="round" stroke-miterlimit="10" cx="64" cy="64" r="43"></circle></g><g><circle fill="none" stroke="#000000" stroke-width="4" stroke-linecap="round" stroke-linejoin="round" stroke-miterlimit="10" cx="64" cy="64" r="29"></circle></g><g><circle cx="64" cy="28" r="2"></circle><line fill="none" stroke="#000000" stroke-width="4" stroke-linecap="round" stroke-linejoin="round" stroke-miterlimit="10" x1="69" y1="93" x2="71.2" y2="105.4"></line><line fill="none" stroke="#000000" stroke-width="4" stroke-linecap="round" stroke-linejoin="round" stroke-miterlimit="10" x1="56.6" y1="22.6" x2="58.9" y2="35.2"></line><line fill="none" stroke="#000000" stroke-width="4" stroke-linecap="round" stroke-linejoin="round" stroke-miterlimit="10" x1="59" y1="93" x2="56.8" y2="105.4"></line><line fill="none" stroke="#000000" stroke-width="4" stroke-linecap="round" stroke-linejoin="round" stroke-miterlimit="10" x1="71.2" y1="22.6" x2="69" y2="35"></line><circle cx="64" cy="100" r="2"></circle></g><g><ellipse transform="matrix(0.5 -0.866 0.866 0.5 -23.4256 51.4256)" cx="32.8" cy="46" rx="2" ry="2"></ellipse><line fill="none" stroke="#000000" stroke-width="4" stroke-linecap="round" stroke-linejoin="round" stroke-miterlimit="10" x1="91.6" y1="74.2" x2="103.4" y2="78.5"></line><line fill="none" stroke="#000000" stroke-width="4" stroke-linecap="round" stroke-linejoin="round" stroke-miterlimit="10" x1="24.5" y1="49.7" x2="36.5" y2="54"></line><line fill="none" stroke="#000000" stroke-width="4" stroke-linecap="round" stroke-linejoin="round" stroke-miterlimit="10" x1="86.6" y1="82.8" x2="96.2" y2="90.9"></line><line fill="none" stroke="#000000" stroke-width="4" stroke-linecap="round" stroke-linejoin="round" stroke-miterlimit="10" x1="31.8" y1="37.1" x2="41.4" y2="45.2"></line><ellipse transform="matrix(0.5 -0.866 0.866 0.5 -23.4256 123.4256)" cx="95.2" cy="82" rx="2" ry="2"></ellipse></g><g><ellipse transform="matrix(0.866 -0.5 0.5 0.866 -36.6025 27.3975)" cx="32.8" cy="82" rx="2" ry="2"></ellipse><line fill="none" stroke="#000000" stroke-width="4" stroke-linecap="round" stroke-linejoin="round" stroke-miterlimit="10" x1="86.6" y1="45.2" x2="96.2" y2="37.1"></line><line fill="none" stroke="#000000" stroke-width="4" stroke-linecap="round" stroke-linejoin="round" stroke-miterlimit="10" x1="31.9" y1="91.1" x2="41.6" y2="82.9"></line><line fill="none" stroke="#000000" stroke-width="4" stroke-linecap="round" stroke-linejoin="round" stroke-miterlimit="10" x1="91.6" y1="53.8" x2="103.4" y2="49.5"></line><line fill="none" stroke="#000000" stroke-width="4" stroke-linecap="round" stroke-linejoin="round" stroke-miterlimit="10" x1="24.6" y1="78.5" x2="36.4" y2="74.2"></line><ellipse transform="matrix(0.866 -0.5 0.5 0.866 -10.2487 53.7513)" cx="95.2" cy="46" rx="2" ry="2"></ellipse></g><g><circle fill="none" stroke="#000000" stroke-width="4" stroke-linecap="round" stroke-linejoin="round" stroke-miterlimit="10" cx="64" cy="64" r="8"></circle></g><g><circle fill="none" stroke="#000000" stroke-width="4" stroke-linecap="round" stroke-linejoin="round" stroke-miterlimit="10" cx="64" cy="83" r="4"></circle></g><g><circle fill="none" stroke="#000000" stroke-width="4" stroke-linecap="round" stroke-linejoin="round" stroke-miterlimit="10" cx="64" cy="45" r="4"></circle></g><g><ellipse transform="matrix(0.5 -0.866 0.866 0.5 -23.4256 106.4256)" fill="none" stroke="#000000" stroke-width="4" stroke-linecap="round" stroke-linejoin="round" stroke-miterlimit="10" cx="80.5" cy="73.5" rx="4" ry="4"></ellipse></g><g><ellipse transform="matrix(0.5 -0.866 0.866 0.5 -23.4256 68.4256)" fill="none" stroke="#000000" stroke-width="4" stroke-linecap="round" stroke-linejoin="round" stroke-miterlimit="10" cx="47.5" cy="54.5" rx="4" ry="4"></ellipse></g><g><ellipse transform="matrix(0.866 -0.5 0.5 0.866 -16.4711 47.5289)" fill="none" stroke="#000000" stroke-width="4" stroke-linecap="round" stroke-linejoin="round" stroke-miterlimit="10" cx="80.5" cy="54.5" rx="4" ry="4"></ellipse></g><g><ellipse transform="matrix(0.866 -0.5 0.5 0.866 -30.3801 33.6199)" fill="none" stroke="#000000" stroke-width="4" stroke-linecap="round" stroke-linejoin="round" stroke-miterlimit="10" cx="47.5" cy="73.5" rx="4" ry="4"></ellipse></g></svg>