<svg xmlns="http://www.w3.org/2000/svg" xmlns:xlink="http://www.w3.org/1999/xlink" version="1.1" x="0px" y="0px" viewBox="0 0 64 64" enable-background="new 0 0 64 64" xml:space="preserve"><path d="M3,12h32c0.5527344,0,1-0.4477539,1-1V9c0-1.6542969-1.3457031-3-3-3h-7V3c0-0.5522461-0.4472656-1-1-1H13  c-0.5527344,0-1,0.4477539-1,1v3H5C3.3457031,6,2,7.3457031,2,9v2C2,11.5522461,2.4472656,12,3,12z M14,4h10v2H14V4z M4,9  c0-0.5512695,0.4482422-1,1-1h8h12h8c0.5517578,0,1,0.4487305,1,1v1H4V9z M27,21h-4c-0.5527344,0-1,0.4477539-1,1v25  c0,0.5522461,0.4472656,1,1,1h4c0.5527344,0,1-0.4477539,1-1V22C28,21.4477539,27.5527344,21,27,21z M26,46h-2V23h2V46z M15,21h-4  c-0.5527344,0-1,0.4477539-1,1v25c0,0.5522461,0.4472656,1,1,1h4c0.5527344,0,1-0.4477539,1-1V22C16,21.4477539,15.5527344,21,15,21  z M14,46h-2V23h2V46z M46,30c-3.782959,0-7.2579956,1.3266602-10,3.5299072V15c0-0.5522461-0.4472656-1-1-1H3  c-0.5527344,0-1,0.4477539-1,1v35c0,2.7568359,2.2431641,5,5,5h24c0.548645,0,1.09021-0.0998535,1.6060181-0.2748413  C35.4648438,59.0986328,40.3965454,62,46,62c8.8222656,0,16-7.1777344,16-16S54.8222656,30,46,30z M31,53H7  c-1.6542969,0-3-1.3457031-3-3V16h30v19.4525146C31.5186768,38.2719727,30,41.9578857,30,46  c0,2.4824829,0.5848389,4.8253784,1.5982056,6.9241333C31.4011841,52.9642334,31.2025146,53,31,53z M46,60  c-7.7197266,0-14-6.2802734-14-14s6.2802734-14,14-14s14,6.2802734,14,14S53.7197266,60,46,60z M51.625,49.2192383  c0.4306641,0.3447266,0.5009766,0.9741211,0.15625,1.4052734C51.5830078,50.871582,51.2929688,51,50.9990234,51  c-0.21875,0-0.4394531-0.0717773-0.6240234-0.2192383l-5-4C45.1376953,46.5913086,45,46.3037109,45,46v-8  c0-0.5522461,0.4472656-1,1-1s1,0.4477539,1,1v7.5195313L51.625,49.2192383z"></path></svg>