<svg xmlns="http://www.w3.org/2000/svg" xmlns:xlink="http://www.w3.org/1999/xlink" version="1.1" x="0px" y="0px" viewBox="0 0 64 64" style="enable-background:new 0 0 64 64;" xml:space="preserve"><g><path d="M23,40c0-0.551,0.448-1,1-1v-2c-1.654,0-3,1.346-3,3s1.346,3,3,3s3-1.346,3-3h-2c0,0.551-0.448,1-1,1S23,40.551,23,40z"></path><path d="M29,40c0,2.757-2.243,5-5,5s-5-2.243-5-5s2.243-5,5-5v-2c-3.859,0-7,3.14-7,7s3.141,7,7,7s7-3.14,7-7v-3h-2V40z"></path><path d="M32.292,25.869l-1.219-0.517l-0.817,6.54C30.177,32.523,29.637,33,29,33s-1.177-0.477-1.256-1.108l-0.86-6.885   l-1.007,0.143C18.536,26.189,13,32.574,13,40c0,6.065,4.935,11,11,11c8.271,0,15-6.729,15-15   C39,31.574,36.367,27.597,32.292,25.869z M24,49c-4.963,0-9-4.038-9-9c0-6.093,4.3-11.377,10.156-12.688l0.604,4.828   C25.963,33.771,27.356,35,29,35s3.037-1.229,3.24-2.86l0.477-3.808C35.355,29.953,37,32.836,37,36C37,43.168,31.168,49,24,49z"></path><path d="M41,35h2c0-7.72-6.28-14-14-14h-2v2h2C35.617,23,41,28.383,41,35z"></path><path d="M41,23c2.206,0,4-1.794,4-4s-1.794-4-4-4s-4,1.794-4,4S38.794,23,41,23z M41,17c1.103,0,2,0.897,2,2s-0.897,2-2,2   s-2-0.897-2-2S39.897,17,41,17z"></path><path d="M48,27c-1.654,0-3,1.346-3,3s1.346,3,3,3s3-1.346,3-3S49.654,27,48,27z M48,31c-0.552,0-1-0.449-1-1s0.448-1,1-1   s1,0.449,1,1S48.552,31,48,31z"></path><circle cx="42" cy="38" r="1"></circle><path d="M40.604,49.149l1.051,1.702c2.697-1.664,5.08-3.757,7.083-6.221l-1.553-1.262C45.324,45.659,43.11,47.604,40.604,49.149z"></path><path d="M14.217,24.483l-1.752-0.966c-1.085,1.967-1.93,4.061-2.511,6.224l1.932,0.519C12.425,28.252,13.209,26.309,14.217,24.483z   "></path><circle cx="10" cy="34" r="1"></circle><circle cx="10" cy="42" r="1"></circle><circle cx="12" cy="48" r="1"></circle><circle cx="17" cy="52" r="1"></circle><rect x="57" y="57" width="2" height="2"></rect><rect x="53" y="57" width="2" height="2"></rect><rect x="49" y="57" width="2" height="2"></rect><path d="M61,53h-6v-4c0-1.103-0.897-2-2-2h-1.047C56.357,41.517,59,34.563,59,27v-3c0-10.477-8.523-19-19-19h-3   c-9.128,0-17.37,3.848-23.205,10H11v-4h6c1.103,0,2-0.897,2-2V3c0-1.103-0.897-2-2-2H3C1.897,1,1,1.897,1,3v6c0,1.103,0.897,2,2,2   h6v4c0,1.103,0.897,2,2,2h1.047C7.643,22.483,5,29.437,5,37v3c0,10.477,8.523,19,19,19h3c9.128,0,17.37-3.848,23.205-10H53v4h-6   c-1.103,0-2,0.897-2,2v6c0,1.103,0.897,2,2,2h14c1.103,0,2-0.897,2-2v-6C63,53.897,62.103,53,61,53z M2.999,3L2.999,3H17v6H3   L2.999,3z M31,9.651V7.604c0.658-0.134,1.327-0.239,2-0.329v2.021C32.328,9.392,31.66,9.507,31,9.651z M23,12.761v-2.283   c0.653-0.346,1.32-0.668,2-0.966v2.186C24.318,12.023,23.654,12.382,23,12.761z M27,8.72c0.656-0.233,1.324-0.441,2-0.628v2.076   c-0.676,0.201-1.342,0.432-2,0.684V8.72z M25,57v-2h2v2H25z M35,55.908c-0.659,0.183-1.324,0.35-2,0.488v-2.045   c0.672-0.147,1.339-0.318,2-0.516V55.908z M31,56.725c-0.66,0.088-1.327,0.156-2,0.201v-1.998c0.67-0.047,1.337-0.119,2-0.215   V56.725z M37,55.28v-4.238l-1.334,0.473C32.888,52.5,29.973,53,27,53h-4v3.949C14.092,56.427,7,49.036,7,40v-3   c0-10.662,5.596-20.036,14-25.358v2.385c-2.14,1.496-4.088,3.303-5.777,5.392l1.555,1.258C21.752,14.527,29.122,11,37,11h3   c7.168,0,13,5.832,13,13v3c0,4.057-0.912,7.944-2.711,11.554l1.789,0.893C54.018,35.557,55,31.37,55,27v-3c0-8.271-6.729-15-15-15   h-3c-0.671,0-1.337,0.032-2,0.079V7.074C35.662,7.03,36.327,7,37,7h3c9.374,0,17,7.626,17,17v3C57,40.036,48.639,51.152,37,55.28z    M47,61v-6h14l0.001,6H47z"></path><rect x="5" y="5" width="2" height="2"></rect><rect x="9" y="5" width="2" height="2"></rect><rect x="13" y="5" width="2" height="2"></rect></g></svg>