<svg xmlns="http://www.w3.org/2000/svg" xmlns:xlink="http://www.w3.org/1999/xlink" version="1.1" x="0px" y="0px" viewBox="0 0 52 52" style="enable-background:new 0 0 52 52;" xml:space="preserve"><style type="text/css">
	.st0{fill:none;stroke:#000000;stroke-width:2;stroke-linecap:round;stroke-linejoin:round;stroke-miterlimit:10;}
</style><g><g><path d="M29.0029297,45.6806641c-0.4589844,0-0.8730469-0.3183594-0.9755859-0.7851563    c-0.1181641-0.5400391,0.2226563-1.0732422,0.7617188-1.1914063C34.7080078,42.4042969,39.0039063,37.0615234,39.0039063,31    V13.6503906C39.0039063,8.3291016,34.6787109,4,29.3632813,4h-6.7089844c-5.3212891,0-9.6503906,4.3291016-9.6503906,9.6503906V31    c0,6.0742188,4.2949219,11.4169922,10.2128906,12.703125c0.5390625,0.1181641,0.8818359,0.6503906,0.7646484,1.1904297    c-0.1181641,0.5390625-0.6455078,0.8818359-1.1904297,0.7646484C15.9609375,44.1728516,11.0039063,38.0078125,11.0039063,31    V13.6503906C11.0039063,7.2265625,16.2304688,2,22.6542969,2h6.7089844c6.4189453,0,11.640625,5.2265625,11.640625,11.6503906V31    c0,6.9941406-4.9570313,13.1582031-11.7851563,14.6572266C29.1464844,45.6728516,29.0742188,45.6806641,29.0029297,45.6806641z"></path></g><g><path d="M26.0068359,50c-0.4296875,0-0.8662109-0.0683594-1.2958984-0.2070313    c-1.59375-0.5136719-2.7070313-2.1132813-2.7070313-3.890625V42c0-2.2060547,1.7939453-4,4-4    c1.0517578,0,2.0820313,0.4277344,2.8271484,1.1738281C29.5898438,39.9472656,30.0039063,40.9492188,30.0039063,42v4    c0,1.2744141-0.6162109,2.484375-1.6484375,3.2353516C27.6611328,49.7402344,26.8457031,50,26.0068359,50z M26.0039063,40    c-1.1025391,0-2,0.8974609-2,2v3.9023438c0,0.9199219,0.5429688,1.7373047,1.3212891,1.9873047    c0.6650391,0.2138672,1.3203125,0.1171875,1.8525391-0.2714844C27.703125,47.2363281,28.0039063,46.6464844,28.0039063,46v-4    c0-0.5244141-0.2109375-1.0283203-0.5947266-1.4199219C27.0429688,40.2138672,26.5292969,40,26.0039063,40z"></path></g><g><path d="M36,18.0039063H16.0009766c-0.3369141,0-0.6523438-0.1699219-0.8369141-0.4521484    s-0.2148438-0.6386719-0.0791016-0.9482422l0.5751953-1.3164063c0.6835938-1.5625,1.1845703-3.2080078,1.5839844-4.6123047    c0.7822266-2.75,3.3271484-4.6708984,6.1884766-4.6708984h5.1347656c2.8339844,0,5.3027344,1.8164063,6.1435547,4.5205078    l0.2041016,0.6621094c0.4560547,1.4755859,0.8857422,2.8691406,1.4775391,4.2197266l0.5234375,1.1953125    c0.1357422,0.3095703,0.1054688,0.6669922-0.0791016,0.9492188S36.3378906,18.0039063,36,18.0039063z M17.5292969,16.0039063    h16.9423828c-0.5917969-1.3916016-1.0371094-2.8320313-1.4677734-4.2285156l-0.203125-0.6572266    c-0.5791016-1.8623047-2.2802734-3.1142578-4.2333984-3.1142578h-5.1347656c-1.9716797,0-3.7255859,1.3232422-4.2646484,3.2177734    C18.7568359,12.6660156,18.2412109,14.359375,17.5292969,16.0039063z"></path></g><g><path d="M11.0009766,21.0048828C8.7949219,21.0048828,7,19.2099609,7,17.0039063s1.7949219-4,4.0009766-4    c0.5527344,0,1,0.4472656,1,1s-0.4472656,1-1,1c-1.1035156,0-2.0009766,0.8974609-2.0009766,2    c0,1.1035156,0.8974609,2.0009766,2.0009766,2.0009766c0.5527344,0,1,0.4472656,1,1S11.5537109,21.0048828,11.0009766,21.0048828z    "></path></g><g><path d="M41,21.0048828c-0.5527344,0-1-0.4472656-1-1s0.4472656-1,1-1c1.1035156,0,2.0009766-0.8974609,2.0009766-2.0009766    c0-1.1025391-0.8974609-2-2.0009766-2c-0.5527344,0-1-0.4472656-1-1s0.4472656-1,1-1c2.2060547,0,4.0009766,1.7939453,4.0009766,4    S43.2060547,21.0048828,41,21.0048828z"></path></g><g><path d="M5,32.0039063c-0.1015625,0-0.2041016-0.015625-0.3056641-0.0478516    c-0.5263672-0.1689453-0.8154297-0.7324219-0.6464844-1.2578125l3.8330078-11.9248047    c0.1699219-0.5263672,0.7333984-0.8115234,1.2578125-0.6464844c0.5263672,0.1689453,0.8154297,0.7324219,0.6464844,1.2578125    L5.9521484,31.3095703C5.8154297,31.734375,5.4228516,32.0039063,5,32.0039063z"></path></g><g><path d="M47.0019531,31.9921875c-0.4228516,0-0.8154297-0.2695313-0.9521484-0.6943359L42.21875,19.3798828    c-0.1689453-0.5253906,0.1201172-1.0888672,0.6464844-1.2578125c0.5234375-0.1660156,1.0888672,0.1201172,1.2578125,0.6464844    l3.8310547,11.9179688c0.1689453,0.5253906-0.1201172,1.0888672-0.6464844,1.2578125    C47.2060547,31.9765625,47.1035156,31.9921875,47.0019531,31.9921875z"></path></g><g><path d="M47,36.0039063c-1.6542969,0-3-1.3457031-3-3s1.3457031-3,3-3s3,1.3457031,3,3S48.6542969,36.0039063,47,36.0039063z     M47,32.0039063c-0.5517578,0-1,0.4482422-1,1s0.4482422,1,1,1s1-0.4482422,1-1S47.5517578,32.0039063,47,32.0039063z"></path></g><g><path d="M5,36.0039063c-1.6542969,0-3-1.3457031-3-3s1.3457031-3,3-3s3,1.3457031,3,3S6.6542969,36.0039063,5,36.0039063z     M5,32.0039063c-0.5517578,0-1,0.4482422-1,1s0.4482422,1,1,1s1-0.4482422,1-1S5.5517578,32.0039063,5,32.0039063z"></path></g></g></svg>