<svg xmlns="http://www.w3.org/2000/svg" xmlns:xlink="http://www.w3.org/1999/xlink" version="1.1" x="0px" y="0px" viewBox="0 0 128 128" enable-background="new 0 0 128 128" xml:space="preserve"><path d="M47,94H37c-0.552,0-1-0.447-1-1V83c0-0.553,0.448-1,1-1h10c0.552,0,1,0.447,1,1v10C48,93.553,47.552,94,47,94z M38,92h8v-8  h-8V92z"></path><path d="M62,94H52c-0.552,0-1-0.447-1-1V83c0-0.553,0.448-1,1-1h10c0.552,0,1,0.447,1,1v10C63,93.553,62.552,94,62,94z M53,92h8v-8  h-8V92z"></path><path d="M77,94H67c-0.553,0-1-0.447-1-1V83c0-0.553,0.447-1,1-1h10c0.553,0,1,0.447,1,1v10C78,93.553,77.553,94,77,94z M68,92h8v-8  h-8V92z"></path><path d="M92,94H82c-0.553,0-1-0.447-1-1V83c0-0.553,0.447-1,1-1h10c0.553,0,1,0.447,1,1v10C93,93.553,92.553,94,92,94z M83,92h8v-8  h-8V92z"></path><path d="M101,98h-2V77c0-0.553-0.447-1-1-1h-5v-3c0-0.553-0.447-1-1-1h-3V40c0-0.552-0.447-1-1-1h-1v-2c0-0.552-0.447-1-1-1h-5  c-0.553,0-1,0.448-1,1v2h-1c-0.553,0-1,0.448-1,1v32h-2c-0.553,0-1,0.447-1,1v3h-2v-3c0-0.553-0.447-1-1-1h-3V40  c0-0.552-0.447-1-1-1h-1v-2c0-0.552-0.447-1-1-1h-5c-0.552,0-1,0.448-1,1v2h-1c-0.552,0-1,0.448-1,1v32h-2c-0.552,0-1,0.447-1,1v3  h-2v-3c0-0.553-0.448-1-1-1h-3V40c0-0.552-0.448-1-1-1h-1v-2c0-0.552-0.448-1-1-1h-5c-0.552,0-1,0.448-1,1v2h-1  c-0.552,0-1,0.448-1,1v32h-2c-0.552,0-1,0.447-1,1v3h-4c-0.552,0-1,0.447-1,1v21h-3c-0.552,0-1,0.447-1,1s0.448,1,1,1h4h67h3  c0.553,0,1-0.447,1-1S101.553,98,101,98z M82,38h3v1h-3V38z M80,41h1h5h1v31h-7V41z M77,74h2h9h3v2H77V74z M62,38h3v1h-3V38z M60,41  h1h5h1v31h-7V41z M57,74h2h9h3v2H57V74z M42,38h3v1h-3V38z M40,41h1h5h1v31h-7V41z M37,74h2h9h3v2H37V74z M32,98V78h4h16h4h16h4h16  h5v20H32z"></path><path d="M52,35c-0.552,0-1-0.448-1-1c0-1.654-1.346-3-3-3s-3,1.346-3,3c0,0.552-0.448,1-1,1s-1-0.448-1-1c0-2.757,2.243-5,5-5  s5,2.243,5,5C53,34.552,52.552,35,52,35z"></path><path d="M71,35c-0.553,0-1-0.448-1-1c0-1.654-1.346-3-3-3s-3,1.346-3,3c0,0.552-0.448,1-1,1s-1-0.448-1-1c0-2.757,2.243-5,5-5  s5,2.243,5,5C72,34.552,71.553,35,71,35z"></path><path d="M65,31c-0.552,0-1-0.448-1-1c0-0.551-0.449-1-1-1s-1,0.449-1,1c0,0.552-0.448,1-1,1s-1-0.448-1-1c0-1.654,1.346-3,3-3  c1.654,0,3,1.346,3,3C66,30.552,65.553,31,65,31z"></path><path d="M88,35c-0.553,0-1-0.448-1-1c0-0.551-0.448-1-1-1s-1,0.449-1,1c0,0.552-0.447,1-1,1s-1-0.448-1-1c0-1.654,1.346-3,3-3  s3,1.346,3,3C89,34.552,88.553,35,88,35z"></path><path d="M86,32.5c-0.553,0-1-0.448-1-1c0-1.103-0.896-2-2-2s-2,0.897-2,2c0,0.552-0.447,1-1,1s-1-0.448-1-1c0-2.206,1.794-4,4-4  s4,1.794,4,4C87,32.052,86.553,32.5,86,32.5z"></path></svg>