<svg xmlns="http://www.w3.org/2000/svg" viewBox="0 0 64 64" x="0px" y="0px"><title>Busines and Management Icon - 25 - 64 - Expanded</title><path d="M45.55,58H40.48a1,1,0,0,1-1-1V52.34a10.49,10.49,0,0,1-1.43-.59L34.75,55a1,1,0,0,1-1.41,0l-3.59-3.58a1,1,0,0,1-.29-.71,1,1,0,0,1,.29-.71L33,46.75a11.93,11.93,0,0,1-.59-1.43H27.8a1,1,0,0,1-1-1V39.25a1,1,0,0,1,1-1h4.65a12,12,0,0,1,.6-1.43l-3.3-3.3a1,1,0,0,1,0-1.41l3.59-3.59a1,1,0,0,1,1.41,0l3.3,3.3a12,12,0,0,1,1.43-.6V26.57a1,1,0,0,1,1-1h5.07a1,1,0,0,1,1,1v4.65a12,12,0,0,1,1.43.6l3.29-3.3a1,1,0,0,1,1.42,0l3.58,3.59a1,1,0,0,1,0,1.41L53,36.82a10.49,10.49,0,0,1,.59,1.43h4.66a1,1,0,0,1,1,1v5.07a1,1,0,0,1-1,1H53.57A10.49,10.49,0,0,1,53,46.75L56.27,50a1,1,0,0,1,.3.71,1,1,0,0,1-.3.71L52.69,55a1,1,0,0,1-1.42,0L48,51.75a10.49,10.49,0,0,1-1.43.59V57A1,1,0,0,1,45.55,58Zm-4.07-2h3.07V51.59a1,1,0,0,1,.75-1,9,9,0,0,0,2.35-1,1,1,0,0,1,1.22.16L52,52.92l2.17-2.17L51,47.63a1,1,0,0,1-.16-1.21,9,9,0,0,0,1-2.35,1,1,0,0,1,1-.75h4.4V40.25h-4.4a1,1,0,0,1-1-.75,9,9,0,0,0-1-2.35A1,1,0,0,1,51,35.93l3.11-3.11L52,30.64l-3.11,3.12a1,1,0,0,1-1.22.15,9,9,0,0,0-2.35-1,1,1,0,0,1-.75-1v-4.4H41.48V32a1,1,0,0,1-.75,1,9,9,0,0,0-2.35,1,1,1,0,0,1-1.22-.15l-3.11-3.12-2.18,2.18L35,35.93a1,1,0,0,1,.15,1.22,9,9,0,0,0-1,2.35,1,1,0,0,1-1,.75H28.8v3.07h4.4a1,1,0,0,1,1,.75,9,9,0,0,0,1,2.35A1,1,0,0,1,35,47.63l-3.12,3.12,2.18,2.17,3.11-3.11a1,1,0,0,1,1.22-.16,9,9,0,0,0,2.35,1,1,1,0,0,1,.75,1Z"></path><path d="M43,50a8.21,8.21,0,1,1,8.21-8.21A8.22,8.22,0,0,1,43,50Zm0-14.42a6.21,6.21,0,1,0,6.21,6.21A6.22,6.22,0,0,0,43,35.57Z"></path><path d="M40.15,45.36a1.26,1.26,0,0,1-.27,0,1,1,0,0,1-.64-.55l-1-2.24a1,1,0,0,1,.5-1.33,1,1,0,0,1,1.32.5l.54,1.17,6.1-4.09a1,1,0,0,1,1.38.27,1,1,0,0,1-.27,1.39l-7.08,4.75A1,1,0,0,1,40.15,45.36Z"></path><path d="M25.34,53.65A20.57,20.57,0,1,1,44.72,26.23a1,1,0,1,1-1.88.67,18.57,18.57,0,1,0-17.5,24.75,18.3,18.3,0,0,0,5.75-.91,1,1,0,0,1,.62,1.91A20.74,20.74,0,0,1,25.34,53.65Z"></path><path d="M25.34,49.33A16.24,16.24,0,1,1,41.47,31.21a1,1,0,1,1-2,.23A14.24,14.24,0,1,0,33.17,45a1,1,0,0,1,1.09,1.67A16.21,16.21,0,0,1,25.34,49.33Z"></path><path d="M32.94,11.26H17.73a1,1,0,0,1-1-1V7a1,1,0,0,1,1-1H32.94a1,1,0,0,1,1,1v3.26A1,1,0,0,1,32.94,11.26Zm-14.21-2H31.94V8H18.73Z"></path><path d="M27.51,14.52H23.16a1,1,0,0,1-1-1V10.26a1,1,0,0,1,1-1h4.35a1,1,0,0,1,1,1v3.26A1,1,0,0,1,27.51,14.52Zm-3.35-2h2.35V11.26H24.16Z"></path><path d="M25.34,33h-8.7a1,1,0,0,1,0-2h7.7V22.22a1,1,0,0,1,2,0V32A1,1,0,0,1,25.34,33Z"></path><path d="M11.5,20.26a1,1,0,0,1-.7-.3L7.24,16.4A1,1,0,0,1,8.65,15l3.56,3.56a1,1,0,0,1,0,1.41A1,1,0,0,1,11.5,20.26Z"></path><path d="M6.86,17.78a1,1,0,0,1-.71-.29,1,1,0,0,1,0-1.41l2.72-2.72a1,1,0,0,1,1.41,1.41L7.56,17.49A1,1,0,0,1,6.86,17.78Z"></path></svg>