<svg xmlns="http://www.w3.org/2000/svg" xmlns:xlink="http://www.w3.org/1999/xlink" version="1.1" x="0px" y="0px" viewBox="0 0 64 64" style="enable-background:new 0 0 64 64;" xml:space="preserve"><g><path d="M62,1H52c-0.552,0-1,0.448-1,1v1h-4.764l-3.789-1.895C42.309,1.036,42.155,1,42,1H27c-2.206,0-4,1.794-4,4   c0,0.829,0.254,1.6,0.688,2.239C22.128,7.786,21,9.256,21,11c0,0.363,0.064,0.708,0.155,1.042   c-7.251,0.436-13.037,6.4-13.153,13.732L1.094,40.577c-0.145,0.31-0.121,0.672,0.063,0.96S1.658,42,2,42h6v12c0,0.553,0.448,1,1,1   h10v8h2v-9c0-0.553-0.448-1-1-1H10V41c0-0.553-0.448-1-1-1H3.57l6.336-13.577C9.968,26.291,10,26.146,10,26c0-6.617,5.383-12,12-12   v-0.382c0.119,0.136,0.246,0.263,0.382,0.382C21.542,14.734,21,15.8,21,17s0.542,2.266,1.382,3C21.542,20.734,21,21.8,21,23   c0,2.206,1.794,4,4,4h11v11c0,0.553,0.448,1,1,1h0.91c0.023,0,0.045-0.005,0.068-0.005l-0.92,1.993l-2.47-1.796l-1.177,1.617   l2.792,2.031l-3.112,6.742C33.031,49.712,33,49.855,33,50v3.081l-5.664-2.023l-0.673,1.883L33,55.204V63h2v-7.081l5.091,1.818   c0.097,0.154,0.201,0.302,0.31,0.447l-1.109,1.109l1.414,1.414l1.109-1.109c0.915,0.686,2.001,1.151,3.184,1.322V63h2v-2.08   c1.183-0.17,2.269-0.636,3.184-1.322l1.109,1.109l1.414-1.414l-1.109-1.109c0.686-0.915,1.151-2.001,1.322-3.184H55v-2h-2.08   c-0.17-1.183-0.636-2.269-1.322-3.184l1.109-1.109l-1.414-1.414l-1.109,1.109C49.269,47.716,48.183,47.25,47,47.08V45h-2v1.763   l-6.293-4.577l1.729-3.746c1.208-0.559,2.217-1.512,2.84-2.758l0.09-0.181C43.781,34.674,44,33.746,44,32.82v-6.406L45.414,25H51v1   c0,0.552,0.448,1,1,1h10c0.552,0,1-0.448,1-1V2C63,1.448,62.552,1,62,1z M46,49c2.757,0,5,2.243,5,5s-2.243,5-5,5s-5-2.243-5-5   S43.243,49,46,49z M42.92,47.724C40.602,48.866,39,51.247,39,54c0,0.433,0.045,0.856,0.121,1.267L35,53.796V50.22l2.853-6.181   L42.92,47.724z M45,23c-0.265,0-0.52,0.105-0.707,0.293l-2,2C42.105,25.48,42,25.735,42,26v6.82c0,0.618-0.146,1.236-0.422,1.789   l-0.09,0.181c-0.668,1.337-1.999,2.177-3.487,2.21V26c0-0.552-0.448-1-1-1H25c-1.103,0-2-0.897-2-2s0.897-2,2-2h4v-2h-4   c-1.103,0-2-0.897-2-2s0.897-2,2-2h4v-2h-4c-1.103,0-2-0.897-2-2s0.897-2,2-2h2h2V7h-2c-1.103,0-2-0.897-2-2s0.897-2,2-2h14.764   l3.789,1.895C45.691,4.964,45.845,5,46,5h5v18H45z M61,25h-8V3h8V25z"></path><rect x="56" y="5" width="2" height="2"></rect><rect x="56" y="21" width="2" height="2"></rect><path d="M27.707,49.707l3-3c0.391-0.391,0.391-1.023,0-1.414L29.415,44H31c0.552,0,1-0.447,1-1v-4c0-0.553-0.448-1-1-1h-1.585   l1.292-1.293c0.391-0.391,0.391-1.023,0-1.414l-3-3c-0.375-0.375-1.039-0.375-1.414,0L25,33.586V32c0-0.552-0.448-1-1-1h-4   c-0.552,0-1,0.448-1,1v1.586l-1.293-1.293C17.52,32.105,17.265,32,17,32s-0.52,0.105-0.707,0.293l-3,3   c-0.391,0.391-0.391,1.023,0,1.414L14.585,38H13c-0.552,0-1,0.447-1,1v4c0,0.553,0.448,1,1,1h1.585l-1.292,1.293   c-0.391,0.391-0.391,1.023,0,1.414l3,3c0.375,0.375,1.039,0.375,1.414,0L19,48.414V50c0,0.553,0.448,1,1,1h4c0.552,0,1-0.447,1-1   v-1.586l1.293,1.293C26.48,49.895,26.735,50,27,50S27.52,49.895,27.707,49.707z M25.921,46.507c-0.307-0.308-0.78-0.38-1.167-0.181   c-0.336,0.175-0.686,0.316-1.039,0.422C23.291,46.874,23,47.264,23,47.706V49h-2v-1.294c0-0.442-0.291-0.832-0.714-0.958   c-0.321-0.096-0.649-0.233-1.031-0.431c-0.388-0.202-0.86-0.127-1.167,0.181L17,47.586L15.414,46l1.087-1.088   c0.308-0.308,0.381-0.779,0.182-1.166c-0.199-0.386-0.336-0.713-0.431-1.031C16.126,42.291,15.736,42,15.294,42H14v-2h1.294   c0.442,0,0.833-0.291,0.958-0.715c0.104-0.352,0.246-0.701,0.421-1.039c0.2-0.387,0.127-0.859-0.181-1.167L15.414,36L17,34.414   l1.079,1.079c0.308,0.309,0.781,0.382,1.167,0.181c0.336-0.175,0.686-0.316,1.039-0.422C20.709,35.126,21,34.736,21,34.294V33h2   v1.294c0,0.442,0.291,0.832,0.714,0.958c0.321,0.096,0.649,0.233,1.031,0.431c0.387,0.202,0.86,0.128,1.167-0.181L27,34.414   L28.586,36l-1.087,1.088c-0.308,0.308-0.381,0.779-0.182,1.166c0.199,0.386,0.336,0.713,0.431,1.031   C27.874,39.709,28.264,40,28.706,40H30v2h-1.294c-0.442,0-0.833,0.291-0.958,0.715c-0.104,0.352-0.246,0.701-0.421,1.039   c-0.2,0.387-0.127,0.859,0.181,1.167L28.586,46L27,47.586L25.921,46.507z"></path><path d="M22,37c-2.206,0-4,1.794-4,4s1.794,4,4,4s4-1.794,4-4S24.206,37,22,37z M22,43c-1.103,0-2-0.897-2-2s0.897-2,2-2   s2,0.897,2,2S23.103,43,22,43z"></path><path d="M46,57c1.654,0,3-1.346,3-3s-1.346-3-3-3s-3,1.346-3,3S44.346,57,46,57z M46,53c0.551,0,1,0.448,1,1s-0.449,1-1,1   s-1-0.448-1-1S45.449,53,46,53z"></path></g></svg>