<svg xmlns="http://www.w3.org/2000/svg" xmlns:xlink="http://www.w3.org/1999/xlink" version="1.1" x="0px" y="0px" viewBox="0 0 100 100" style="enable-background:new 0 0 100 100;" xml:space="preserve"><g><path d="M4.6,36.7v49h90.8v-49V14.2H4.6V36.7z M8.6,18.2h82.8v14.5H8.6V18.2z M8.6,36.7h82.8v45H8.6V36.7z"></path><circle cx="15.7" cy="25.7" r="5.1"></circle><circle cx="29.6" cy="25.7" r="5.1"></circle><circle cx="43.5" cy="25.7" r="5.1"></circle><path d="M42.8,46.4h-4.4c-6.3,0-11.6,4.6-12.5,10.7h-8.4c-1.1,0-2,0.9-2,2s0.9,2,2,2h8.4c1,6.1,6.2,10.7,12.5,10.7h4.4   c1.1,0,2-0.9,2-2V48.4C44.8,47.3,43.9,46.4,42.8,46.4z M40.8,67.8h-2.4c-4.8,0-8.7-3.9-8.7-8.7c0-4.8,3.9-8.7,8.7-8.7h2.4V67.8z"></path><path d="M82.6,57.1h-8.4c-1-6.1-6.2-10.7-12.5-10.7h-4.4c-1.1,0-2,0.9-2,2v3.3h-4.7c-1.1,0-2,0.9-2,2s0.9,2,2,2h4.7v6.9h-4.7   c-1.1,0-2,0.9-2,2s0.9,2,2,2h4.7v3.3c0,1.1,0.9,2,2,2h4.4c6.3,0,11.6-4.6,12.5-10.7h8.4c1.1,0,2-0.9,2-2S83.7,57.1,82.6,57.1z    M61.6,67.8h-2.4V50.4h2.4c4.8,0,8.7,3.9,8.7,8.7C70.4,63.9,66.4,67.8,61.6,67.8z"></path></g></svg>